#Comment line ignore any data following # character 
#Hierarchical Translation and Rotation (.htr) file 
[Header]	
#Header keywords are followed by a single value 
FileType HTR		#Single word string
DataType HTRS		#Translation followed by rotation and scale data
FileVersion 1		#integer
NumSegments 84		#integer
NumFrames 2		#integer
DataFrameRate 30		#integer, data frame rate in this file
EulerRotationOrder ZYX
CalibrationUnits mm
RotationUnits Degrees
GlobalAxisofGravity Y
BoneLengthAxis Y
ScaleFactor 1.00
[SegmentNames&Hierarchy]
#CHILD	PARENT
MASTER GLOBAL
root MASTER
chest root
L_mid_tent01 root
R_mid_tent01 root
spine01 root
Bip01_Neck chest
L_humerus chest
R_humerus chest
weapon_bone chest
Bip01_Head Bip01_Neck
eye_left_bone Bip01_Head
eye_right_bone Bip01_Head
L_forearm L_humerus
L_front_hand L_forearm
L_weapon_bone L_forearm
L_front_hand01_01 L_front_hand
L_front_hand02_01 L_front_hand
L_front_hand03_01 L_front_hand
L_front_hand01_02 L_front_hand01_01
L_front_hand02_02 L_front_hand02_01
L_front_hand03_02 L_front_hand03_01
R_forearm R_humerus
R_front_hand R_forearm
R_weapon_bone R_forearm
R_front_hand01_01 R_front_hand
R_front_hand02_01 R_front_hand
R_front_hand03_01 R_front_hand
R_front_hand01_02 R_front_hand01_01
R_front_hand02_02 R_front_hand02_01
R_front_hand03_02 R_front_hand03_01
null_rope01_connect L_mid_tent01
Rope1_Seg01 null_rope01_connect
Rope1_Seg02 Rope1_Seg01
Rope1_Seg03 Rope1_Seg02
Rope1_Seg04 Rope1_Seg03
Rope1_Seg05 Rope1_Seg04
Rope1_Seg06 Rope1_Seg05
Rope1_Seg07 Rope1_Seg06
Rope1_Seg09 Rope1_Seg07
L_mid_hand01 Rope1_Seg09
L_mid_hand02 Rope1_Seg09
L_mid_hand03 Rope1_Seg09
null_rope02_connect R_mid_tent01
Rope2_Seg01 null_rope02_connect
Rope2_Seg02 Rope2_Seg01
Rope2_Seg03 Rope2_Seg02
Rope2_Seg04 Rope2_Seg03
Rope2_Seg05 Rope2_Seg04
Rope2_Seg06 Rope2_Seg05
Rope2_Seg07 Rope2_Seg06
Rope2_Seg09 Rope2_Seg07
R_mid_hand01 Rope2_Seg09
R_mid_hand02 Rope2_Seg09
R_mid_hand03 Rope2_Seg09
spine02 spine01
spine03 spine02
pelvis spine03
null_rope03_connect pelvis
null_rope04_connect pelvis
Rope3_Seg01 null_rope03_connect
Rope3_Seg02 Rope3_Seg01
Rope3_Seg03 Rope3_Seg02
Rope3_Seg04 Rope3_Seg03
Rope3_Seg05 Rope3_Seg04
Rope3_Seg06 Rope3_Seg05
Rope3_Seg07 Rope3_Seg06
Rope3_Seg08 Rope3_Seg07
Rope3_Seg09 Rope3_Seg08
R_rear_hand01 Rope3_Seg09
R_rear_hand02 Rope3_Seg09
R_rear_hand03 Rope3_Seg09
Rope4_Seg01 null_rope04_connect
Rope4_Seg02 Rope4_Seg01
Rope4_Seg03 Rope4_Seg02
Rope4_Seg04 Rope4_Seg03
Rope4_Seg05 Rope4_Seg04
Rope4_Seg06 Rope4_Seg05
Rope4_Seg07 Rope4_Seg06
Rope4_Seg08 Rope4_Seg07
Rope4_Seg09 Rope4_Seg08
L_rear_hand01 Rope4_Seg09
L_rear_hand02 Rope4_Seg09
L_rear_hand03 Rope4_Seg09
[BasePosition]
#SegmentName Tx, Ty, Tz, Rx, Ry, Rz, BoneLength
MASTER 0.000000 0.000000 0.000000 -90.000000 0.000000 0.000000 10.000000 
root 0.000000 0.000000 0.000000 0.000000 0.000000 0.000000 10.000000 
chest 0.000000 0.000000 0.000000 0.000000 0.000000 0.000000 10.000000 
L_mid_tent01 0.000000 0.000000 0.000000 0.000000 0.000000 0.000000 10.000000 
R_mid_tent01 0.000000 0.000000 0.000000 0.000000 0.000000 0.000000 10.000000 
spine01 0.000000 0.000000 0.000000 0.000000 0.000000 0.000000 10.000000 
Bip01_Neck 0.000000 0.000000 0.000000 0.000000 0.000000 0.000000 10.000000 
L_humerus 0.000000 0.000000 0.000000 0.000000 0.000000 0.000000 10.000000 
R_humerus 0.000000 0.000000 0.000000 0.000000 0.000000 0.000000 10.000000 
weapon_bone 0.000000 0.000000 0.000000 0.000000 0.000000 0.000000 10.000000 
Bip01_Head 0.000000 0.000000 0.000000 0.000000 0.000000 0.000000 10.000000 
eye_left_bone 0.000000 0.000000 0.000000 0.000000 0.000000 0.000000 10.000000 
eye_right_bone 0.000000 0.000000 0.000000 0.000000 0.000000 0.000000 10.000000 
L_forearm 0.000000 0.000000 0.000000 0.000000 0.000000 0.000000 10.000000 
L_front_hand 0.000000 0.000000 0.000000 0.000000 0.000000 0.000000 10.000000 
L_weapon_bone 0.000000 0.000000 0.000000 0.000000 0.000000 0.000000 10.000000 
L_front_hand01_01 0.000000 0.000000 0.000000 0.000000 0.000000 0.000000 10.000000 
L_front_hand02_01 0.000000 0.000000 0.000000 0.000000 0.000000 0.000000 10.000000 
L_front_hand03_01 0.000000 0.000000 0.000000 0.000000 0.000000 0.000000 10.000000 
L_front_hand01_02 0.000000 0.000000 0.000000 0.000000 0.000000 0.000000 10.000000 
L_front_hand02_02 0.000000 0.000000 0.000000 0.000000 0.000000 0.000000 10.000000 
L_front_hand03_02 0.000000 0.000000 0.000000 0.000000 0.000000 0.000000 10.000000 
R_forearm 0.000000 0.000000 0.000000 0.000000 0.000000 0.000000 10.000000 
R_front_hand 0.000000 0.000000 0.000000 0.000000 0.000000 0.000000 10.000000 
R_weapon_bone 0.000000 0.000000 0.000000 0.000000 0.000000 0.000000 10.000000 
R_front_hand01_01 0.000000 0.000000 0.000000 0.000000 0.000000 0.000000 10.000000 
R_front_hand02_01 0.000000 0.000000 0.000000 0.000000 0.000000 0.000000 10.000000 
R_front_hand03_01 0.000000 0.000000 0.000000 0.000000 0.000000 0.000000 10.000000 
R_front_hand01_02 0.000000 0.000000 0.000000 0.000000 0.000000 0.000000 10.000000 
R_front_hand02_02 0.000000 0.000000 0.000000 0.000000 0.000000 0.000000 10.000000 
R_front_hand03_02 0.000000 0.000000 0.000000 0.000000 0.000000 0.000000 10.000000 
null_rope01_connect 0.000000 0.000000 0.000000 0.000000 0.000000 0.000000 10.000000 
Rope1_Seg01 0.000000 0.000000 0.000000 0.000000 0.000000 0.000000 10.000000 
Rope1_Seg02 0.000000 0.000000 0.000000 0.000000 0.000000 0.000000 10.000000 
Rope1_Seg03 0.000000 0.000000 0.000000 0.000000 0.000000 0.000000 10.000000 
Rope1_Seg04 0.000000 0.000000 0.000000 0.000000 0.000000 0.000000 10.000000 
Rope1_Seg05 0.000000 0.000000 0.000000 0.000000 0.000000 0.000000 10.000000 
Rope1_Seg06 0.000000 0.000000 0.000000 0.000000 0.000000 0.000000 10.000000 
Rope1_Seg07 0.000000 0.000000 0.000000 0.000000 0.000000 0.000000 10.000000 
Rope1_Seg09 0.000000 0.000000 0.000000 0.000000 0.000000 0.000000 10.000000 
L_mid_hand01 0.000000 0.000000 0.000000 0.000000 0.000000 0.000000 10.000000 
L_mid_hand02 0.000000 0.000000 0.000000 0.000000 0.000000 0.000000 10.000000 
L_mid_hand03 0.000000 0.000000 0.000000 0.000000 0.000000 0.000000 10.000000 
null_rope02_connect 0.000000 0.000000 0.000000 0.000000 0.000000 0.000000 10.000000 
Rope2_Seg01 0.000000 0.000000 0.000000 0.000000 0.000000 0.000000 10.000000 
Rope2_Seg02 0.000000 0.000000 0.000000 0.000000 0.000000 0.000000 10.000000 
Rope2_Seg03 0.000000 0.000000 0.000000 0.000000 0.000000 0.000000 10.000000 
Rope2_Seg04 0.000000 0.000000 0.000000 0.000000 0.000000 0.000000 10.000000 
Rope2_Seg05 0.000000 0.000000 0.000000 0.000000 0.000000 0.000000 10.000000 
Rope2_Seg06 0.000000 0.000000 0.000000 0.000000 0.000000 0.000000 10.000000 
Rope2_Seg07 0.000000 0.000000 0.000000 0.000000 0.000000 0.000000 10.000000 
Rope2_Seg09 0.000000 0.000000 0.000000 0.000000 0.000000 0.000000 10.000000 
R_mid_hand01 0.000000 0.000000 0.000000 0.000000 0.000000 0.000000 10.000000 
R_mid_hand02 0.000000 0.000000 0.000000 0.000000 0.000000 0.000000 10.000000 
R_mid_hand03 0.000000 0.000000 0.000000 0.000000 0.000000 0.000000 10.000000 
spine02 0.000000 0.000000 0.000000 0.000000 0.000000 0.000000 10.000000 
spine03 0.000000 0.000000 0.000000 0.000000 0.000000 0.000000 10.000000 
pelvis 0.000000 0.000000 0.000000 0.000000 0.000000 0.000000 10.000000 
null_rope03_connect 0.000000 0.000000 0.000000 0.000000 0.000000 0.000000 10.000000 
null_rope04_connect 0.000000 0.000000 0.000000 0.000000 0.000000 0.000000 10.000000 
Rope3_Seg01 0.000000 0.000000 0.000000 0.000000 0.000000 0.000000 10.000000 
Rope3_Seg02 0.000000 0.000000 0.000000 0.000000 0.000000 0.000000 10.000000 
Rope3_Seg03 0.000000 0.000000 0.000000 0.000000 0.000000 0.000000 10.000000 
Rope3_Seg04 0.000000 0.000000 0.000000 0.000000 0.000000 0.000000 10.000000 
Rope3_Seg05 0.000000 0.000000 0.000000 0.000000 0.000000 0.000000 10.000000 
Rope3_Seg06 0.000000 0.000000 0.000000 0.000000 0.000000 0.000000 10.000000 
Rope3_Seg07 0.000000 0.000000 0.000000 0.000000 0.000000 0.000000 10.000000 
Rope3_Seg08 0.000000 0.000000 0.000000 0.000000 0.000000 0.000000 10.000000 
Rope3_Seg09 0.000000 0.000000 0.000000 0.000000 0.000000 0.000000 10.000000 
R_rear_hand01 0.000000 0.000000 0.000000 0.000000 0.000000 0.000000 10.000000 
R_rear_hand02 0.000000 0.000000 0.000000 0.000000 0.000000 0.000000 10.000000 
R_rear_hand03 0.000000 0.000000 0.000000 0.000000 0.000000 0.000000 10.000000 
Rope4_Seg01 0.000000 0.000000 0.000000 0.000000 0.000000 0.000000 10.000000 
Rope4_Seg02 0.000000 0.000000 0.000000 0.000000 0.000000 0.000000 10.000000 
Rope4_Seg03 0.000000 0.000000 0.000000 0.000000 0.000000 0.000000 10.000000 
Rope4_Seg04 0.000000 0.000000 0.000000 0.000000 0.000000 0.000000 10.000000 
Rope4_Seg05 0.000000 0.000000 0.000000 0.000000 0.000000 0.000000 10.000000 
Rope4_Seg06 0.000000 0.000000 0.000000 0.000000 0.000000 0.000000 10.000000 
Rope4_Seg07 0.000000 0.000000 0.000000 0.000000 0.000000 0.000000 10.000000 
Rope4_Seg08 0.000000 0.000000 0.000000 0.000000 0.000000 0.000000 10.000000 
Rope4_Seg09 0.000000 0.000000 0.000000 0.000000 0.000000 0.000000 10.000000 
L_rear_hand01 0.000000 0.000000 0.000000 0.000000 0.000000 0.000000 10.000000 
L_rear_hand02 0.000000 0.000000 0.000000 0.000000 0.000000 0.000000 10.000000 
L_rear_hand03 0.000000 0.000000 0.000000 0.000000 0.000000 0.000000 10.000000 
#Beginning of Data. Separated by tabs
#Fr	Tx	Ty	Tz	Rx	Ry	Rz	SF
[MASTER]
15 -0.000400 2664.193604 3827.280273 0.001660 0.001660 0.001660 4663.260742
16 -0.000426 2840.660889 3940.608154 0.001660 0.001660 0.001660 4857.751465
[root]
15 -37.384407 -49.983521 1501.356689 -88.733047 -10.570981 -92.735413 1502.653687
16 -36.019016 -46.103493 1497.889038 -90.562691 -12.824003 -92.582932 1499.031250
[chest]
15 -84.512650 -34.090519 0.000000 -1.409752 0.058125 -163.069824 91.129311
16 -84.512650 -34.090519 0.000000 -1.471900 0.253178 -165.668365 91.129311
[L_mid_tent01]
15 27.299137 22.179373 -249.918701 2.510369 27.101288 79.974426 252.381714
16 27.299143 22.179394 -249.918701 2.710236 28.626249 80.177910 252.381714
[R_mid_tent01]
15 23.228794 24.509907 226.238495 160.882446 -40.788124 85.642113 228.744751
16 23.228794 24.509907 226.238495 159.516220 -41.985691 87.975670 228.744751
[spine01]
15 -0.361383 -0.195265 0.000000 0.001952 0.001304 22.515594 0.410763
16 -0.361383 -0.195265 0.000000 0.001951 0.001305 22.455940 0.410763
[Bip01_Neck]
15 165.484543 71.581718 0.000119 176.643677 -1.657967 43.431911 180.302734
16 165.484543 71.581718 0.000119 176.643677 -1.657967 43.431911 180.302734
[L_humerus]
15 -13.983130 -135.272980 -120.471481 -6.597858 65.511421 83.316429 181.680161
16 -13.983130 -135.272980 -120.471481 -6.466183 65.962692 83.466476 181.680161
[R_humerus]
15 -13.983309 -135.273102 125.287651 26.275606 -66.378769 69.422150 184.909012
16 -13.983309 -135.273102 125.287651 26.462008 -66.851753 69.229416 184.909012
[weapon_bone]
15 235.964890 -300.705902 0.000000 0.000000 -89.951546 -128.212341 382.234833
16 235.964890 -300.705902 0.000000 0.000000 -89.951546 -128.212341 382.234833
[Bip01_Head]
15 213.472885 185.636948 12.792815 4.438503 -0.898050 -43.900337 283.187958
16 213.417358 185.791931 10.791715 4.439511 -0.609496 -43.899078 283.164398
[eye_left_bone]
15 -24.626970 125.451866 -64.772606 0.000000 -90.000000 -99.840431 143.318359
16 -24.626970 125.451866 -64.772606 0.000000 -90.000000 -99.840431 143.318359
[eye_right_bone]
15 -24.626970 125.451866 64.327362 0.000000 -89.965736 80.156380 143.117676
16 -24.626970 125.451866 64.327362 0.000000 -89.965736 80.156380 143.117676
[L_forearm]
15 322.776093 0.000000 -0.000119 0.000419 -0.002310 -110.550987 322.776093
16 322.776093 0.000000 -0.000119 0.000416 -0.002310 -110.402489 322.776093
[L_front_hand]
15 241.149185 -0.042021 -3.300071 -178.667953 -1.835447 -27.422350 241.171753
16 241.149185 -0.042021 -3.300071 -178.667953 -1.835447 -27.422350 241.171753
[L_weapon_bone]
15 156.183838 0.000000 0.000000 0.000014 0.000007 0.000001 156.183838
16 156.183838 0.000000 0.000000 0.000014 0.000007 0.000001 156.183838
[L_front_hand01_01]
15 86.095154 20.947098 -0.655860 -0.274633 -0.532782 65.272827 88.609184
16 86.095154 20.947098 -0.655860 -0.280373 -0.529283 65.613800 88.609184
[L_front_hand02_01]
15 86.935165 -11.437475 24.513514 141.090271 -54.445614 -45.572052 91.046425
16 86.935165 -11.437475 24.513514 141.458649 -54.658344 -46.027485 91.046425
[L_front_hand03_01]
15 86.637497 -14.123976 -20.424902 -141.476303 52.677540 -47.637543 90.126129
16 86.637497 -14.123976 -20.424902 -141.832764 52.885189 -48.080185 90.126129
[L_front_hand01_02]
15 71.020905 -0.000179 0.000030 0.000315 -0.002326 -105.405197 71.020905
16 71.020905 -0.000179 0.000030 0.000315 -0.002326 -105.400543 71.020905
[L_front_hand02_02]
15 71.020927 -0.000119 0.000060 0.000315 -0.002326 -105.405197 71.020927
16 71.020927 -0.000119 0.000060 0.000315 -0.002326 -105.400543 71.020927
[L_front_hand03_02]
15 71.020905 -0.000060 0.000060 0.000315 -0.002326 -105.405197 71.020905
16 71.020905 -0.000060 0.000060 0.000315 -0.002326 -105.400543 71.020905
[R_forearm]
15 322.776428 -0.000060 0.000030 0.201438 0.067184 -109.213570 322.776428
16 322.776428 -0.000060 0.000030 0.201528 0.066917 -109.061539 322.776428
[R_front_hand]
15 238.847015 -0.006795 2.210259 -2.635298 -10.645461 -26.312506 238.857239
16 238.847015 -0.006795 2.210259 -2.635298 -10.645461 -26.312506 238.857239
[R_weapon_bone]
15 155.664093 0.002503 -0.000030 0.003487 0.001180 -90.988930 155.664078
16 155.664093 0.002503 -0.000030 0.003487 0.001180 -90.988930 155.664078
[R_front_hand01_01]
15 87.624611 14.231146 22.918642 -138.456909 -52.798630 42.405624 91.683487
16 87.624611 14.231146 22.918642 -138.672287 -52.939835 42.677601 91.683487
[R_front_hand02_01]
15 89.356956 14.367283 -19.491137 139.300415 51.240429 45.105949 92.579636
16 89.356956 14.367283 -19.491137 139.502045 51.377892 45.363930 92.579636
[R_front_hand03_01]
15 87.286232 -22.307278 -0.143439 0.064051 -0.451784 -62.968155 90.091743
16 87.286232 -22.307278 -0.143439 0.064897 -0.451663 -63.182877 90.091743
[R_front_hand01_02]
15 71.020905 0.000060 0.000119 0.002323 -0.000334 106.381714 71.020905
16 71.020905 0.000060 0.000119 0.002323 -0.000334 106.381714 71.020905
[R_front_hand02_02]
15 71.020844 -0.000030 -0.000119 0.002323 -0.000334 106.381714 71.020836
16 71.020844 -0.000030 -0.000119 0.002323 -0.000334 106.381714 71.020836
[R_front_hand03_02]
15 71.020905 0.000000 0.000030 0.002323 -0.000334 106.381714 71.020905
16 71.020905 0.000000 0.000030 0.002323 -0.000334 106.381714 71.020905
[null_rope01_connect]
15 328.732483 0.000000 -0.000238 -148.452286 -62.675423 169.001953 328.732483
16 328.732483 0.000000 -0.000238 -148.082993 -59.421131 170.860306 328.732483
[Rope1_Seg01]
15 0.000054 -0.000016 0.000064 105.386742 -4.353303 -170.984695 0.000085
16 0.000052 -0.000014 0.000057 100.175880 -10.977922 -167.375351 0.000079
[Rope1_Seg02]
15 139.999863 -0.000179 0.000000 5.990312 -10.402420 -3.324224 139.999863
16 139.999863 -0.000179 0.000000 6.689302 -10.220764 -5.049931 139.999863
[Rope1_Seg03]
15 139.999924 0.000060 -0.000060 7.991174 -20.352438 -4.643700 139.999924
16 139.999924 0.000060 -0.000060 12.151672 -24.252140 -10.191751 139.999924
[Rope1_Seg04]
15 139.999924 -0.000060 -0.000119 5.681302 -28.703621 -7.036299 139.999924
16 139.999924 -0.000060 -0.000119 7.779406 -35.120747 -10.673288 139.999924
[Rope1_Seg05]
15 139.999832 0.000119 -0.000060 -3.427485 -24.967957 3.720579 139.999832
16 139.999832 0.000119 -0.000060 -8.055578 -33.423378 6.870724 139.999832
[Rope1_Seg06]
15 139.999954 0.000119 -0.000060 -17.465738 -32.747383 13.623001 139.999954
16 139.999954 0.000119 -0.000060 -22.413744 -32.408421 6.099665 139.999954
[Rope1_Seg07]
15 139.999985 0.000060 0.000000 -20.584345 -18.480663 1.069719 139.999985
16 139.999985 0.000060 0.000000 -15.358274 -12.443104 -3.415511 139.999985
[Rope1_Seg09]
15 121.602913 0.000119 -0.000089 -89.793175 -1.359789 0.847147 121.602913
16 121.602913 0.000119 -0.000089 -89.793175 -1.359789 0.847147 121.602913
[L_mid_hand01]
15 103.859421 1.038730 8.195221 118.511871 -58.710987 -25.432119 104.187431
16 103.859421 1.038730 8.195221 122.214622 -62.281231 -29.682964 104.187431
[L_mid_hand02]
15 105.572853 -4.139662 -10.864139 -159.626373 40.490181 -59.638344 106.211075
16 105.572853 -4.139662 -10.864139 -163.055801 41.815437 -64.846191 106.211075
[L_mid_hand03]
15 104.641464 17.579376 -3.913581 -9.285491 16.381809 63.801434 106.179977
16 104.641464 17.579376 -3.913581 -8.059158 17.002197 68.062881 106.179977
[null_rope02_connect]
15 328.732849 0.000179 -0.000119 -139.889969 46.402592 16.899734 328.732849
16 328.732849 0.000179 -0.000119 -137.594177 46.392223 18.975445 328.732849
[Rope2_Seg01]
15 0.000060 0.000064 0.000000 -41.266907 4.073454 -3.906880 0.000088
16 0.000062 0.000057 0.000000 -39.759674 4.192617 -7.500667 0.000084
[Rope2_Seg02]
15 139.999741 -0.000060 -0.000119 -3.673733 1.204992 2.947302 139.999756
16 139.999741 -0.000060 -0.000119 -3.874163 1.489229 2.564552 139.999756
[Rope2_Seg03]
15 140.000107 0.000030 0.000000 -6.846249 1.963839 5.843083 140.000107
16 140.000107 0.000030 0.000000 -8.357906 2.842480 5.778882 140.000107
[Rope2_Seg04]
15 139.999802 0.000000 -0.000060 -19.214373 4.560804 21.558308 139.999802
16 139.999802 0.000000 -0.000060 -35.545959 15.653295 54.087940 139.999802
[Rope2_Seg05]
15 139.999985 -0.000060 0.000119 -21.387791 -5.170171 75.424896 139.999985
16 139.999985 -0.000060 0.000119 -12.765489 -23.654305 68.158081 139.999985
[Rope2_Seg06]
15 139.999893 -0.000030 -0.000119 4.017415 -13.486719 22.996469 139.999893
16 139.999893 -0.000030 -0.000119 10.588697 -13.074700 20.281910 139.999893
[Rope2_Seg07]
15 139.999893 0.000060 -0.000060 10.290765 -15.937755 19.760796 139.999893
16 139.999893 0.000060 -0.000060 27.452646 -7.045377 20.901773 139.999893
[Rope2_Seg09]
15 121.338966 0.000089 -0.000060 33.793236 -1.359788 -0.847141 121.338966
16 121.338966 0.000089 -0.000060 33.793236 -1.359788 -0.847141 121.338966
[R_mid_hand01]
15 104.680779 11.144459 -10.335981 -34.826851 34.540035 41.908733 105.778534
16 104.680779 11.144459 -10.335981 -32.057350 37.073116 46.635818 105.778534
[R_mid_hand02]
15 104.070427 2.443552 8.231699 68.824310 -46.622631 16.260359 104.424065
16 104.070427 2.443552 8.231699 66.850014 -50.884758 18.890066 104.424065
[R_mid_hand03]
15 106.028137 -11.221827 -5.996406 -170.883774 12.973572 -51.735531 106.788818
16 106.028137 -11.221827 -5.996406 -171.959641 13.662919 -56.404911 106.788818
[spine02]
15 129.756927 0.001550 0.000119 0.472241 -4.032313 -14.563861 129.756927
16 129.756927 0.001550 0.000119 0.457092 -4.034163 -14.342682 129.756927
[spine03]
15 78.614143 0.081367 -4.899012 1.963493 3.799107 17.500475 78.766685
16 78.614143 0.081348 -4.899012 1.954269 3.803157 17.365114 78.766685
[pelvis]
15 169.435242 0.051022 0.000000 -0.068608 -0.178409 16.158480 169.435257
16 169.435242 0.051022 0.000000 -0.068195 -0.178566 15.893723 169.435257
[null_rope03_connect]
15 -1.257226 -2.466202 137.391083 -44.359810 -86.511711 103.370827 137.418976
16 -1.257226 -2.466202 137.391083 -75.281418 -87.310883 136.762085 137.418976
[null_rope04_connect]
15 -1.259640 -2.480268 -137.844437 -44.359810 -86.511711 103.370827 137.872513
16 -1.259640 -2.480268 -137.844437 -75.281418 -87.310883 136.762085 137.872513
[Rope3_Seg01]
15 0.000010 0.000016 -0.000064 -122.322540 40.330944 -58.809868 0.000066
16 0.000010 0.000014 -0.000057 -123.755875 36.460732 -60.725361 0.000060
[Rope3_Seg02]
15 139.999924 -0.000119 0.000060 0.256452 3.146989 9.434548 139.999924
16 139.999924 -0.000119 0.000060 0.374630 4.264301 9.727551 139.999924
[Rope3_Seg03]
15 139.999924 -0.000119 0.000119 -0.258933 4.109929 12.388745 139.999924
16 139.999924 -0.000119 0.000119 0.107404 5.661194 12.968527 139.999924
[Rope3_Seg04]
15 139.999924 0.000119 0.000000 -2.424194 7.043325 21.556118 139.999924
16 139.999924 0.000119 0.000000 -1.150165 10.262688 23.899590 139.999924
[Rope3_Seg05]
15 139.999924 -0.000238 0.000060 -5.572066 3.655146 14.478109 139.999924
16 139.999924 -0.000238 0.000060 -3.412370 3.743804 10.638570 139.999924
[Rope3_Seg06]
15 139.999893 -0.000119 -0.000060 3.847534 -2.126278 -8.585485 139.999893
16 139.999893 -0.000119 -0.000060 4.825087 -5.518121 -15.100476 139.999893
[Rope3_Seg07]
15 139.999771 0.000060 -0.000119 6.045676 -6.055902 -21.774275 139.999771
16 139.999771 0.000060 -0.000119 3.825597 -8.322578 -19.005344 139.999771
[Rope3_Seg08]
15 139.999985 -0.000060 0.000000 1.691147 -4.103685 -10.238368 139.999985
16 139.999985 -0.000060 0.000000 1.237426 -4.581429 -8.907125 139.999985
[Rope3_Seg09]
15 90.185997 -0.000179 -0.000060 89.793228 -1.359877 -0.847183 90.185997
16 90.185997 -0.000179 -0.000060 89.793228 -1.359877 -0.847183 90.185997
[R_rear_hand01]
15 103.366196 -6.073594 -10.757982 -167.735992 21.565800 -48.800823 104.101845
16 103.366196 -6.073594 -10.757982 -169.706436 22.536156 -54.046982 104.101845
[R_rear_hand02]
15 100.509819 12.039542 -7.992327 -27.197794 28.737703 46.115391 101.543350
16 100.509819 12.039542 -7.992327 -24.637733 30.906170 51.254921 101.543350
[R_rear_hand03]
15 101.539970 5.215704 5.435467 81.295586 -49.108280 10.466788 101.819031
16 101.539970 5.215704 5.435467 80.293877 -53.997543 11.741186 101.819031
[Rope4_Seg01]
15 -0.000014 -0.000016 -0.000420 33.597248 23.474005 -138.008240 0.000420
16 -0.000013 -0.000014 -0.000439 34.059570 21.185928 -138.736969 0.000439
[Rope4_Seg02]
15 139.999985 0.000060 0.000119 -0.876760 20.038542 2.875659 139.999985
16 139.999985 0.000060 0.000119 -0.375990 16.476561 4.020882 139.999985
[Rope4_Seg03]
15 139.999924 0.000000 -0.000238 1.688489 23.210037 4.030131 139.999924
16 139.999924 0.000000 -0.000238 1.462314 22.497139 6.094417 139.999924
[Rope4_Seg04]
15 139.999985 0.000000 0.000119 5.840777 25.433071 4.417758 139.999985
16 139.999985 0.000000 0.000119 6.250545 30.643419 9.362387 139.999985
[Rope4_Seg05]
15 139.999802 -0.000060 -0.000119 2.753009 6.463884 0.295892 139.999802
16 139.999802 -0.000060 -0.000119 3.143010 8.570615 1.408157 139.999802
[Rope4_Seg06]
15 139.999924 0.000000 0.000060 -1.659580 -5.976690 -0.719031 139.999924
16 139.999924 0.000000 0.000060 -1.337932 -9.538803 -2.626666 139.999924
[Rope4_Seg07]
15 139.999802 0.000000 0.000000 -3.038505 -19.020000 -2.333725 139.999802
16 139.999802 0.000000 0.000000 -0.624232 -24.033398 -6.903535 139.999802
[Rope4_Seg08]
15 139.999924 0.000000 0.000119 -2.108745 -10.893929 -2.152682 139.999924
16 139.999924 0.000000 0.000119 -1.352860 -11.260318 -3.811921 139.999924
[Rope4_Seg09]
15 90.185791 0.000060 0.000060 -135.617828 2.228885 0.850567 90.185791
16 90.185791 0.000060 0.000060 -135.617828 2.228885 0.850567 90.185791
[L_rear_hand01]
15 101.696655 -8.392275 -7.654577 -18.919888 -34.466518 118.185951 102.329041
16 101.696655 -8.392275 -7.654577 -16.606979 -35.526840 114.151619 102.329041
[L_rear_hand02]
15 102.726799 -1.568258 5.773216 77.226944 63.386848 164.679077 102.900848
16 102.726799 -1.568258 5.773216 75.446785 66.761177 162.720428 102.900848
[L_rear_hand03]
15 104.552910 9.721220 -10.420293 -173.780411 -23.916803 -115.646591 105.519653
16 104.552910 9.721220 -10.420293 -175.325211 -24.244322 -111.864204 105.519653
